<svg width="48" height="47" viewBox="0 0 48 47" fill="none" xmlns="http://www.w3.org/2000/svg">
<path d="M33.1126 33.2297L29.6387 31.9921L29.2261 33.1501L32.7 34.3877L33.1126 33.2297Z" fill="#282828"/>
<path d="M28.4807 31.5796L25.0068 30.3419L24.5943 31.4999L28.0682 32.7375L28.4807 31.5796Z" fill="#282828"/>
<path d="M23.8492 29.9295L20.3752 28.6919L19.9627 29.8498L23.4366 31.0874L23.8492 29.9295Z" fill="#282828"/>
<path d="M42.8545 24.1743L35.4802 8.63474C35.2719 8.19042 34.8943 7.84794 34.4318 7.68381L34.4266 7.68196C33.9673 7.51855 33.4616 7.54647 33.023 7.75934L16.5412 15.5809L10.192 13.319C9.23272 12.9772 8.17803 13.4778 7.83627 14.4372L2.06078 30.6487C1.71902 31.608 2.21962 32.6627 3.17893 33.0045L11.7572 36.0605L12.8687 38.4055C13.077 38.8498 13.4546 39.1923 13.9171 39.3564L13.9217 39.358C14.3812 39.5216 14.8872 39.4938 15.3259 39.2809L17.6732 38.1682L30.9702 42.9053C31.9295 43.2471 32.9842 42.7465 33.3259 41.7872L38.0631 28.4902L41.9752 26.6333C42.4192 26.4283 42.7622 26.0535 42.9271 25.5931C43.0942 25.1296 43.0681 24.6183 42.8545 24.1743ZM37.5299 15.8224L28.8214 19.9559L23.9047 18.2042L35.9473 12.4883L37.5299 15.8224ZM33.552 8.86778C33.8526 8.72066 34.2156 8.84508 34.3627 9.14577C34.3649 9.15012 34.367 9.15446 34.3689 9.15883L35.4203 11.3779L22.2667 17.6207L18.1785 16.1643L33.552 8.86778ZM14.7969 38.1724C14.6517 38.2453 14.483 38.2558 14.3298 38.2017C14.1747 38.1461 14.0485 38.0306 13.9794 37.8812L13.3951 36.6441L16.0359 37.5848L14.7969 38.1724ZM32.168 41.3746C32.0541 41.6944 31.7025 41.8613 31.3827 41.7473L3.59146 31.8465C3.27172 31.7326 3.10484 31.381 3.21875 31.0612L6.10649 22.9555L35.0557 33.2688L32.168 41.3746ZM35.4682 32.1109L6.51903 21.7975L7.75663 18.3236L36.7059 28.637L35.4682 32.1109ZM37.1184 27.479L8.16917 17.1656L8.99424 14.8497C9.10815 14.5299 9.45974 14.3631 9.77949 14.477L37.5707 24.3778C37.8905 24.4917 38.0574 24.8433 37.9435 25.1631L37.1184 27.479ZM41.4521 25.5211L38.6464 26.8528L39.1014 25.5756C39.4432 24.6163 38.9426 23.5616 37.9833 23.2198L30.4565 20.5384L38.0546 16.932L41.7419 24.7005C41.8143 24.8491 41.8237 25.0206 41.7681 25.1763C41.7135 25.3291 41.5995 25.4534 41.4521 25.5211Z" fill="#282828"/>
<path d="M7.81499 32.0644C7.92556 32.0214 8.03295 31.9704 8.13616 31.912C8.58409 33.0765 9.83925 33.7146 11.0441 33.3903C11.8233 33.1764 12.4511 32.5988 12.7291 31.84C13.1847 30.561 12.5172 29.1547 11.2382 28.699C11.1238 28.6565 11.0056 28.6253 10.8851 28.6059L10.8686 28.6046C10.8628 28.6025 10.857 28.6004 10.8518 28.5986C10.29 28.4978 9.71066 28.5981 9.21555 28.8821C8.7236 27.6166 7.29878 26.9895 6.03329 27.4816C4.76775 27.9735 4.14066 29.3983 4.63272 30.6638C5.12468 31.9294 6.54942 32.5564 7.81499 32.0644ZM10.6748 29.817C10.7264 29.825 10.7769 29.8384 10.8257 29.857C11.4652 30.0849 11.7989 30.788 11.5711 31.4275C11.4832 31.6723 11.3185 31.8821 11.1016 32.0256C11.0706 32.0465 11.0439 32.0703 11.0097 32.0914C11.004 32.0946 10.9971 32.0954 10.9908 32.0984C10.6861 32.262 10.3264 32.2891 10.0006 32.1729C9.36506 31.9342 9.04329 31.2255 9.28201 30.59C9.49398 30.0257 10.0838 29.6983 10.6748 29.817ZM7.35175 28.6194C7.99131 28.8473 8.32503 29.5503 8.09718 30.1899C7.86933 30.8295 7.16624 31.1632 6.52668 30.9353C5.88712 30.7075 5.5534 30.0044 5.78124 29.3648C6.00909 28.7253 6.71219 28.3916 7.35175 28.6194Z" fill="#282828"/>
</svg>
