<svg width="17" height="12" viewBox="0 0 17 12" fill="none" xmlns="http://www.w3.org/2000/svg">
<path d="M1.63166 3.69888C1.84671 3.83521 2.49494 4.24012 3.57639 4.91339C4.65787 5.58666 5.48636 6.10506 6.06189 6.46862C6.12513 6.50848 6.25946 6.59511 6.46497 6.72863C6.67052 6.86225 6.84131 6.97022 6.97721 7.05258C7.11321 7.13491 7.27762 7.22727 7.4706 7.32951C7.66352 7.43166 7.84537 7.5085 8.01613 7.55937C8.18691 7.61066 8.34501 7.63606 8.49045 7.63606H8.49998H8.50955C8.65499 7.63606 8.81315 7.61063 8.98394 7.55937C9.15463 7.5085 9.33665 7.43158 9.5294 7.32951C9.72225 7.22715 9.88666 7.13488 10.0227 7.05258C10.1587 6.97022 10.3293 6.86225 10.5349 6.72863C10.7404 6.59499 10.8749 6.50848 10.9381 6.46862C11.5199 6.10506 12.9999 5.18172 15.3778 3.6987C15.8395 3.40905 16.2252 3.05955 16.535 2.65043C16.8451 2.24149 17 1.8125 17 1.36368C17 0.988624 16.8497 0.66757 16.5492 0.400548C16.2488 0.133466 15.893 0 15.4821 0H1.51779C1.03084 0 0.656107 0.147706 0.393644 0.443117C0.131215 0.738587 0 1.10791 0 1.55106C0 1.90901 0.173978 2.2969 0.521769 2.71449C0.869526 3.13212 1.23961 3.46027 1.63166 3.69888Z" fill="#FECE2F"/>
<path d="M16.0512 4.61071C13.977 5.87197 12.402 6.85218 11.327 7.55112C10.9665 7.78966 10.6741 7.97588 10.4495 8.10931C10.2249 8.24284 9.92627 8.3792 9.55306 8.51834C9.17998 8.65769 8.83229 8.72715 8.50969 8.72715H8.50002H8.49048C8.16794 8.72715 7.82005 8.65769 7.44698 8.51834C7.0739 8.3792 6.77502 8.24284 6.5505 8.10931C6.32605 7.97588 6.03352 7.78966 5.67307 7.55112C4.81923 6.98866 3.24764 6.00839 0.958243 4.61071C0.59766 4.39495 0.278279 4.14763 0 3.86926V10.6362C0 11.0114 0.148559 11.3323 0.445844 11.5993C0.743063 11.8665 1.10046 12 1.51789 12H15.4822C15.8995 12 16.2569 11.8665 16.5542 11.5993C16.8515 11.3322 17 11.0114 17 10.6362V3.86926C16.728 4.14187 16.4119 4.38919 16.0512 4.61071Z" fill="#FECE2F"/>
</svg>
