<svg width="17" height="20" viewBox="0 0 17 20" fill="none" xmlns="http://www.w3.org/2000/svg">
<path d="M16.2327 16.5111C16.2271 16.3604 15.9693 16.0887 15.4593 15.6966C15.3251 15.5783 15.1319 15.4154 14.8811 15.2076C14.63 14.9997 14.4027 14.8089 14.1997 14.6355C13.9962 14.4621 13.8069 14.2956 13.6312 14.1362C13.6047 14.106 13.5199 14.0165 13.3771 13.8673C13.2341 13.7184 13.1098 13.6043 13.0033 13.5248C12.8971 13.4458 12.7841 13.3941 12.6644 13.3704C12.4936 13.3364 12.2441 13.4054 11.916 13.5769C11.5877 13.7488 11.2744 13.944 10.9763 14.1635C10.6781 14.3829 10.3734 14.5798 10.0624 14.755C9.75105 14.9302 9.51841 15.0023 9.36478 14.9718C9.28765 14.9565 9.19783 14.9177 9.09512 14.856C8.99253 14.7941 8.9157 14.7432 8.86426 14.7043C8.81354 14.6649 8.72883 14.5901 8.61005 14.4789C8.49093 14.3679 8.42446 14.3069 8.40993 14.2956C7.43118 13.4692 6.64683 12.59 6.05662 11.6582C5.46683 10.7261 5.01985 9.66056 4.71632 8.46121C4.71284 8.44388 4.68758 8.35985 4.64082 8.2093C4.59396 8.05861 4.56437 7.9531 4.55219 7.89232C4.53994 7.83175 4.52951 7.74442 4.52094 7.63051C4.51236 7.5166 4.51933 7.42451 4.54207 7.35413C4.58749 7.2136 4.76738 7.05804 5.08164 6.8877C5.3958 6.71746 5.7277 6.56303 6.07694 6.42475C6.42639 6.28651 6.76055 6.12423 7.07986 5.93837C7.39912 5.75238 7.58395 5.58138 7.63443 5.42518C7.66976 5.31589 7.67586 5.19852 7.6527 5.07341C7.62957 4.94804 7.58247 4.79131 7.51155 4.60255C7.44056 4.41386 7.39734 4.30145 7.38181 4.26495C7.31683 4.04435 7.25205 3.80911 7.18711 3.55926C7.12217 3.30944 7.05295 3.03161 6.97886 2.72595C6.90487 2.42044 6.84497 2.18399 6.79883 2.01688C6.6766 1.41076 6.54616 1.06879 6.4074 0.991507C6.35512 0.956179 6.26915 0.926514 6.14964 0.902762C5.91879 0.856882 5.60503 0.83602 5.20806 0.840376C4.81099 0.844582 4.49193 0.868353 4.25046 0.911955C3.7702 0.991001 3.16335 1.37749 2.42983 2.07124C1.75677 2.71878 1.30407 3.40212 1.07184 4.12072C1.00373 4.33147 0.952419 4.53948 0.917886 4.74481C0.883419 4.94992 0.864255 5.18516 0.86045 5.45049C0.856538 5.71571 0.858535 5.9137 0.866332 6.04393C0.874148 6.17424 0.891695 6.40839 0.918903 6.74644C0.945958 7.08438 0.961133 7.29098 0.964049 7.36638C1.01568 8.1914 1.14944 8.94535 1.36516 9.6284C1.71682 10.7624 2.30374 11.9787 3.12552 13.2768C3.94737 14.5749 4.80545 15.6413 5.69986 16.4758C6.23666 16.9814 6.87982 17.4542 7.62875 17.8942C7.69817 17.9328 7.88474 18.0446 8.18848 18.23C8.49246 18.415 8.70376 18.5422 8.82223 18.6115C8.94073 18.6808 9.12555 18.7779 9.37599 18.9026C9.62702 19.0274 9.85672 19.125 10.0657 19.1959C10.275 19.2662 10.4948 19.3247 10.7254 19.3705C11.5115 19.5267 12.3708 19.4854 13.3028 19.2467C14.3069 18.9808 14.9619 18.6703 15.2676 18.3151C15.4251 18.1387 15.6009 17.8889 15.7962 17.566C15.9917 17.2433 16.1232 16.9765 16.1914 16.7655C16.2271 16.6559 16.2407 16.5714 16.2327 16.5111Z" fill="#FECE2F"/>
</svg>
