<svg width="39" height="39" viewBox="0 0 39 39" fill="none" xmlns="http://www.w3.org/2000/svg">
<path d="M17.3919 33.2032H15.8266C15.6868 33.2032 15.5528 33.1477 15.4539 33.0489C15.3551 32.95 15.2996 32.816 15.2996 32.6762C15.2996 32.5364 15.3551 32.4024 15.4539 32.3035C15.5528 32.2047 15.6868 32.1492 15.8266 32.1492H17.3919C17.5316 32.1492 17.6657 32.2047 17.7645 32.3035C17.8634 32.4024 17.9189 32.5364 17.9189 32.6762C17.9189 32.816 17.8634 32.95 17.7645 33.0489C17.6657 33.1477 17.5316 33.2032 17.3919 33.2032Z" fill="#282828"/>
<path d="M35.8377 33.2031H21.081C20.9412 33.2031 20.8072 33.1476 20.7083 33.0488C20.6095 32.9499 20.554 32.8159 20.554 32.6761C20.554 32.5363 20.6095 32.4023 20.7083 32.3034C20.8072 32.2046 20.9412 32.1491 21.081 32.1491H35.8377C36.1173 32.1491 36.3854 32.038 36.5831 31.8404C36.7807 31.6427 36.8918 31.3746 36.8918 31.095V7.90584C36.8918 7.62629 36.7807 7.35818 36.5831 7.16051C36.3854 6.96284 36.1173 6.85178 35.8377 6.85178H3.16206C2.88251 6.85178 2.61441 6.96284 2.41673 7.16051C2.21906 7.35818 2.10801 7.62629 2.10801 7.90584V31.095C2.10801 31.3746 2.21906 31.6427 2.41673 31.8404C2.61441 32.038 2.88251 32.1491 3.16206 32.1491H6.91977C7.05954 32.1491 7.19359 32.2046 7.29243 32.3034C7.39127 32.4023 7.44679 32.5363 7.44679 32.6761C7.44679 32.8159 7.39127 32.9499 7.29243 33.0488C7.19359 33.1476 7.05954 33.2031 6.91977 33.2031H3.16206C2.60296 33.2031 2.06675 32.981 1.67141 32.5857C1.27606 32.1903 1.05396 31.6541 1.05396 31.095V7.90584C1.05396 7.34673 1.27606 6.81053 1.67141 6.41518C2.06675 6.01983 2.60296 5.79773 3.16206 5.79773H35.8377C36.3968 5.79773 36.933 6.01983 37.3284 6.41518C37.7237 6.81053 37.9458 7.34673 37.9458 7.90584V31.095C37.9458 31.6541 37.7237 32.1903 37.3284 32.5857C36.933 32.981 36.3968 33.2031 35.8377 33.2031Z" fill="#282828"/>
<path d="M12.1374 33.2032H10.6091C10.4693 33.2032 10.3352 33.1477 10.2364 33.0489C10.1376 32.95 10.082 32.816 10.082 32.6762C10.082 32.5364 10.1376 32.4024 10.2364 32.3035C10.3352 32.2047 10.4693 32.1492 10.6091 32.1492H12.1374C12.2772 32.1492 12.4113 32.2047 12.5101 32.3035C12.6089 32.4024 12.6645 32.5364 12.6645 32.6762C12.6645 32.816 12.6089 32.95 12.5101 33.0489C12.4113 33.1477 12.2772 33.2032 12.1374 33.2032Z" fill="#282828"/>
<path d="M37.4188 25.6772H1.58098C1.44121 25.6772 1.30715 25.6217 1.20832 25.5229C1.10948 25.424 1.05396 25.29 1.05396 25.1502C1.05396 25.0104 1.10948 24.8764 1.20832 24.7775C1.30715 24.6787 1.44121 24.6232 1.58098 24.6232H37.4188C37.5586 24.6232 37.6926 24.6787 37.7915 24.7775C37.8903 24.8764 37.9458 25.0104 37.9458 25.1502C37.9458 25.29 37.8903 25.424 37.7915 25.5229C37.6926 25.6217 37.5586 25.6772 37.4188 25.6772Z" fill="#282828"/>
<path d="M32.9065 29.514H6.09343C5.95366 29.514 5.81961 29.4585 5.72077 29.3597C5.62193 29.2608 5.56641 29.1268 5.56641 28.987C5.56641 28.8472 5.62193 28.7132 5.72077 28.6143C5.81961 28.5155 5.95366 28.46 6.09343 28.46H32.9065C33.0462 28.46 33.1803 28.5155 33.2791 28.6143C33.378 28.7132 33.4335 28.8472 33.4335 28.987C33.4335 29.1268 33.378 29.2608 33.2791 29.3597C33.1803 29.4585 33.0462 29.514 32.9065 29.514Z" fill="#282828"/>
<path d="M10.0663 31.1588C9.92656 31.1588 9.79251 31.1033 9.69367 31.0045C9.59483 30.9056 9.53931 30.7716 9.53931 30.6318V27.3421C9.53931 27.2023 9.59483 27.0683 9.69367 26.9694C9.79251 26.8706 9.92656 26.8151 10.0663 26.8151C10.2061 26.8151 10.3402 26.8706 10.439 26.9694C10.5378 27.0683 10.5934 27.2023 10.5934 27.3421V30.6318C10.5934 30.7716 10.5378 30.9056 10.439 31.0045C10.3402 31.1033 10.2061 31.1588 10.0663 31.1588Z" fill="#282828"/>
<path d="M17.0757 20.5192C16.7973 20.5185 16.5235 20.4475 16.2799 20.3126C16.0167 20.1721 15.797 19.9622 15.6446 19.7057C15.4923 19.4492 15.4131 19.1559 15.4156 18.8575V12.6175C15.4154 12.3196 15.4956 12.0271 15.6476 11.7708C15.7997 11.5145 16.018 11.304 16.2795 11.1613C16.5411 11.0186 16.8363 10.949 17.1341 10.9598C17.4319 10.9707 17.7212 11.0616 17.9717 11.223L22.8251 14.343C23.0585 14.4932 23.2505 14.6995 23.3835 14.9432C23.5165 15.1868 23.5862 15.4599 23.5862 15.7375C23.5862 16.0151 23.5165 16.2882 23.3835 16.5319C23.2505 16.7755 23.0585 16.9819 22.8251 17.132L17.9717 20.252C17.705 20.4256 17.3939 20.5184 17.0757 20.5192ZM17.0757 12.0125C16.9153 12.0129 16.7615 12.0768 16.648 12.1901C16.5344 12.3034 16.4703 12.4571 16.4696 12.6175V18.8575C16.4697 18.9659 16.4989 19.0723 16.5542 19.1656C16.6096 19.2588 16.689 19.3354 16.7841 19.3874C16.8792 19.4393 16.9866 19.4647 17.095 19.4609C17.2033 19.4571 17.3086 19.4241 17.3998 19.3656L22.2532 16.2451C22.3383 16.1904 22.4083 16.1153 22.4568 16.0266C22.5052 15.9379 22.5307 15.8384 22.5307 15.7373C22.5307 15.6362 22.5052 15.5367 22.4568 15.4479C22.4083 15.3592 22.3383 15.2841 22.2532 15.2295L17.3998 12.11C17.3034 12.0471 17.1909 12.0133 17.0757 12.0125Z" fill="#282828"/>
</svg>
